<svg width="139" height="34" viewBox="0 0 139 34" fill="none" xmlns="http://www.w3.org/2000/svg">
<path d="M2.89523 34C2.01789 34 1.31601 33.7481 0.789607 33.2444C0.263202 32.7407 0 32.0481 0 31.1667V11.7111C0 8.05926 0.965075 5.19444 2.89523 3.11667C4.82538 1.03889 7.48665 0 10.879 0C12.5167 0 14.0521 0.44074 15.4851 1.32222C16.9473 2.17222 18.2048 3.4 19.2576 5.00556C20.2812 3.36852 21.5095 2.125 22.9425 1.275C24.4047 0.425 25.9839 0 27.6801 0C31.0725 0 33.7338 1.03889 35.6639 3.11667C37.5941 5.19444 38.5592 8.05926 38.5592 11.7111V31.1667C38.5592 32.0167 38.2813 32.7093 37.7257 33.2444C37.1993 33.7481 36.4974 34 35.6201 34C34.7427 34 34.0408 33.7481 33.5144 33.2444C32.988 32.7407 32.7248 32.0481 32.7248 31.1667V11.7111C32.7248 9.31852 32.3154 7.60278 31.4966 6.56389C30.6777 5.49352 29.3324 4.95833 27.4608 4.95833C25.7646 4.95833 24.4486 5.54074 23.5127 6.70556C22.6062 7.87037 22.1529 9.53889 22.1529 11.7111V31.1667C22.1529 32.0481 21.8897 32.7407 21.3633 33.2444C20.8369 33.7481 20.135 34 19.2576 34C18.3803 34 17.6784 33.7481 17.152 33.2444C16.6549 32.7407 16.4063 32.0481 16.4063 31.1667V11.7111C16.4063 9.60185 15.9384 7.94907 15.0025 6.75278C14.0667 5.55648 12.7653 4.95833 11.0984 4.95833C9.22671 4.95833 7.88145 5.49352 7.0626 6.56389C6.24375 7.60278 5.83432 9.31852 5.83432 11.7111V31.1667C5.83432 32.0167 5.5565 32.7093 5.00085 33.2444C4.47444 33.7481 3.77257 34 2.89523 34Z" fill="#6C73D3"/>
<path d="M46.1574 33.9528C45.2801 33.9528 44.5782 33.7009 44.0518 33.1972C43.5254 32.6935 43.2622 32.0009 43.2622 31.1194V14.5917C43.2622 10.0269 44.4758 6.4537 46.9031 3.87222C49.3305 1.29074 52.7082 0 57.0364 0C59.8732 0 62.3297 0.582407 64.4061 1.74722C66.4825 2.91204 68.0617 4.5963 69.1438 6.8C70.2551 9.0037 70.8107 11.6009 70.8107 14.5917V31.1194C70.8107 32.0009 70.5475 32.6935 70.0211 33.1972C69.4947 33.7009 68.7928 33.9528 67.9155 33.9528C67.0381 33.9528 66.3216 33.7009 65.766 33.1972C65.2396 32.662 64.9764 31.9694 64.9764 31.1194V23.4222H49.0965V31.1194C49.0965 31.9694 48.8187 32.662 48.263 33.1972C47.7366 33.7009 47.0348 33.9528 46.1574 33.9528ZM64.9764 18.5583V14.45C64.9764 11.3019 64.3037 8.94074 62.9585 7.36667C61.6425 5.76111 59.6685 4.95833 57.0364 4.95833C51.7431 4.95833 49.0965 8.12222 49.0965 14.45V18.5583H64.9764Z" fill="#6C73D3"/>
<path d="M75.525 7.46111C75.525 5.25741 76.1099 3.54167 77.2797 2.31389C78.4788 1.08611 80.1311 0.472222 82.2367 0.472222H90.045C94.4025 0.472222 97.6925 1.38519 99.9151 3.21111C102.138 5.03704 103.249 7.76018 103.249 11.3806C103.249 14.7491 102.313 17.3778 100.442 19.2667C98.5991 21.1556 96.1133 22.1 92.9841 22.1L99.6519 29.2306C100.178 29.7972 100.442 30.4426 100.442 31.1667C100.442 31.9222 100.134 32.5833 99.5203 33.15C98.8769 33.6852 98.2482 33.9528 97.634 33.9528C96.7859 33.9528 96.011 33.5435 95.3091 32.725L85.8338 22.2889H81.3594V31.1667C81.3594 32.0481 81.0815 32.7407 80.5259 33.2444C79.9702 33.7481 79.2684 34 78.4203 34C77.5429 34 76.841 33.7481 76.3146 33.2444C75.7882 32.7407 75.525 32.0481 75.525 31.1667V7.46111ZM89.8696 17.425C91.7997 17.425 93.3058 17.2204 94.3879 16.8111C95.4699 16.4019 96.2303 15.7722 96.669 14.9222C97.1369 14.0407 97.3708 12.8602 97.3708 11.3806C97.3708 9.23981 96.7567 7.69722 95.5284 6.75278C94.3294 5.80833 92.4431 5.33611 89.8696 5.33611H83.2456C82.6607 5.33611 82.1928 5.54074 81.8419 5.95C81.5202 6.35926 81.3594 6.92593 81.3594 7.65V17.425H89.8696Z" fill="#6C73D3"/>
<path d="M122.594 34C119.172 34 116.218 33.2917 113.733 31.875C111.276 30.4269 109.404 28.4278 108.118 25.8778C106.831 23.2963 106.187 20.337 106.187 17C106.187 13.663 106.831 10.7194 108.118 8.16944C109.404 5.58796 111.276 3.58889 113.733 2.17222C116.218 0.724074 119.172 0 122.594 0C126.015 0 128.954 0.724074 131.411 2.17222C133.897 3.58889 135.783 5.58796 137.07 8.16944C138.357 10.7194 139 13.663 139 17C139 20.337 138.357 23.2963 137.07 25.8778C135.783 28.4278 133.897 30.4269 131.411 31.875C128.954 33.2917 126.015 34 122.594 34ZM122.594 29.0417C125.928 29.0417 128.516 27.9713 130.358 25.8306C132.201 23.6583 133.122 20.7148 133.122 17C133.122 13.2537 132.157 10.3102 130.227 8.16944C128.326 6.0287 125.635 4.95833 122.155 4.95833C118.967 4.95833 116.482 6.06019 114.698 8.26389C112.943 10.4361 112.066 13.3481 112.066 17C112.066 20.7148 112.987 23.6583 114.829 25.8306C116.672 27.9713 119.26 29.0417 122.594 29.0417Z" fill="#6C73D3"/>
</svg>
