<svg width="316" height="375" viewBox="0 0 316 375" fill="none" xmlns="http://www.w3.org/2000/svg">
<rect width="316" height="84" rx="10" fill="#F3F5F6"/>
<path d="M25.8188 36.3071C26.8094 36.3071 27.6589 36.0526 28.3672 35.5435C29.0755 35.0288 29.6206 34.3011 30.0024 33.3604C30.3843 32.4196 30.5752 31.3045 30.5752 30.0151V29.9985C30.5752 28.7036 30.3843 27.5885 30.0024 26.6533C29.6206 25.7126 29.0755 24.9876 28.3672 24.4785C27.6589 23.9694 26.8094 23.7148 25.8188 23.7148C24.8338 23.7148 23.9844 23.9694 23.2705 24.4785C22.5622 24.9876 22.0171 25.7126 21.6353 26.6533C21.2534 27.5885 21.0625 28.7036 21.0625 29.9985V30.0151C21.0625 31.3045 21.2534 32.4196 21.6353 33.3604C22.0171 34.3011 22.5622 35.0288 23.2705 35.5435C23.9844 36.0526 24.8338 36.3071 25.8188 36.3071ZM25.8188 34.3232C25.3485 34.3232 24.9473 34.1517 24.6152 33.8086C24.2887 33.4655 24.0369 32.973 23.8599 32.3311C23.6883 31.6891 23.6025 30.9172 23.6025 30.0151V29.9985C23.6025 29.091 23.6883 28.319 23.8599 27.6826C24.0369 27.0407 24.2887 26.5509 24.6152 26.2134C24.9473 25.8703 25.3485 25.6987 25.8188 25.6987C26.2948 25.6987 26.696 25.8703 27.0225 26.2134C27.3545 26.5509 27.6063 27.0407 27.7778 27.6826C27.9549 28.319 28.0435 29.091 28.0435 29.9985V30.0151C28.0435 30.9172 27.9549 31.6891 27.7778 32.3311C27.6063 32.973 27.3545 33.4655 27.0225 33.8086C26.696 34.1517 26.2948 34.3232 25.8188 34.3232ZM35.7798 36H38.2866V24.022H35.7881L32.6919 26.1719V28.4297L35.6304 26.3877H35.7798V36Z" fill="#7A82F1"/>
<rect x="51" y="20.5" width="57" height="19" rx="5" fill="#90C6FA"/>
<path d="M62.003 25.833V27.45C62.003 29.133 60.804 31.025 59.385 31.718L59.913 32.444C61.464 31.652 62.729 29.518 62.729 27.45V25.833H62.003ZM62.168 25.833V27.45C62.168 29.419 63.367 31.421 64.94 32.202L65.457 31.476C64.016 30.794 62.894 29.023 62.894 27.45V25.833H62.168ZM59.737 25.426V26.196H65.094V25.426H59.737ZM66.271 24.414V34.358H67.195V24.414H66.271ZM66.975 28.429V29.199H68.823V28.429H66.975ZM76.9071 24.414V34.358H77.8201V24.414H76.9071ZM73.9921 25.481V25.635C73.9921 28.275 72.6611 30.387 69.7901 31.773L70.2741 32.51C73.5961 30.882 74.8941 28.363 74.8941 25.481H73.9921ZM70.2411 25.481V26.229H74.3881V25.481H70.2411ZM83.6383 27.175V27.912H85.8493V27.175H83.6383ZM83.5613 29.672V30.409H85.8273V29.672H83.5613ZM87.3563 24.414V34.358H88.2363V24.414H87.3563ZM85.3653 24.667V33.852H86.2233V24.667H85.3653ZM83.1433 25.668V25.833C83.1433 28.176 82.0983 30.156 79.7773 31.564L80.3053 32.213C82.9783 30.618 84.0233 28.275 84.0233 25.668H83.1433ZM80.2173 25.668V26.416H83.5063V25.668H80.2173ZM90.3144 24.821V29.166H94.9124V24.821H94.0214V26.251H91.2164V24.821H90.3144ZM91.2164 26.966H94.0214V28.429H91.2164V26.966ZM96.7054 24.414V29.54H97.6184V24.414H96.7054ZM97.2224 26.548V27.307H99.0814V26.548H97.2224ZM91.3044 30.024V30.75H96.7274V31.751H91.3264V33.929H92.2284V32.433H97.6184V30.024H91.3044ZM91.3264 33.522V34.248H97.9814V33.522H91.3264Z" fill="#F3F5F6"/>
<path d="M29.93 47.61V61.17H31.175V47.61H29.93ZM30.875 53.175V54.225H33.395V53.175H30.875ZM20.675 49.77V50.79H28.67V49.77H20.675ZM24.725 51.915C22.82 51.915 21.425 53.205 21.425 55.035C21.425 56.865 22.82 58.155 24.725 58.155C26.645 58.155 28.025 56.865 28.025 55.035C28.025 53.205 26.645 51.915 24.725 51.915ZM24.725 52.95C25.955 52.95 26.84 53.805 26.84 55.035C26.84 56.25 25.955 57.12 24.725 57.12C23.495 57.12 22.61 56.25 22.61 55.035C22.61 53.805 23.495 52.95 24.725 52.95ZM24.08 47.775V50.235H25.325V47.775H24.08ZM36.0038 48.15V49.155H44.0888V50.73H36.0338V54.03H37.2938V51.69H45.3338V48.15H36.0038ZM36.0338 53.415V54.435H45.6488V53.415H36.0338ZM34.5338 55.83V56.865H46.8338V55.83H34.5338ZM40.0388 56.22V61.185H41.2688V56.22H40.0388ZM53.8377 52.875V53.91H56.4027V52.875H53.8377ZM58.6677 47.61V61.17H59.8677V47.61H58.6677ZM55.9827 47.895V60.495H57.1677V47.895H55.9827ZM51.3927 48.735C49.6377 48.735 48.5127 50.55 48.5127 53.46C48.5127 56.37 49.6377 58.185 51.3927 58.185C53.1477 58.185 54.2877 56.37 54.2877 53.46C54.2877 50.55 53.1477 48.735 51.3927 48.735ZM51.3927 49.89C52.4727 49.89 53.1477 51.27 53.1477 53.46C53.1477 55.65 52.4727 57.03 51.3927 57.03C50.3277 57.03 49.6527 55.65 49.6527 53.46C49.6527 51.27 50.3277 49.89 51.3927 49.89ZM70.2661 60.249C70.9839 60.249 71.6187 60.0952 72.1704 59.7876C72.7222 59.48 73.1543 59.0552 73.4668 58.5132C73.7842 57.9663 73.9429 57.3389 73.9429 56.6309V56.6162C73.9429 55.9326 73.7964 55.3271 73.5034 54.7998C73.2104 54.2676 72.8076 53.8501 72.2949 53.5474C71.7822 53.2397 71.1938 53.0859 70.5298 53.0859C70.0513 53.0859 69.6143 53.1812 69.2188 53.3716C68.8232 53.5571 68.5083 53.8281 68.2739 54.1846H68.1567L68.5156 50.6104H73.3569V49.4312H67.4756L66.9189 55.5029H68.0615C68.1299 55.376 68.2031 55.2612 68.2812 55.1587C68.3643 55.0562 68.4521 54.9609 68.5449 54.873C68.7744 54.6582 69.0356 54.4971 69.3286 54.3896C69.6265 54.2822 69.9512 54.2285 70.3027 54.2285C70.7617 54.2285 71.167 54.3311 71.5186 54.5361C71.8701 54.7412 72.146 55.0269 72.3462 55.3931C72.5513 55.7544 72.6538 56.1694 72.6538 56.6382V56.6528C72.6538 57.1265 72.5537 57.5464 72.3535 57.9126C72.1533 58.2788 71.875 58.5669 71.5186 58.7769C71.1621 58.9819 70.7495 59.0845 70.2808 59.0845C69.8706 59.0845 69.4995 59.0039 69.1675 58.8428C68.8403 58.6816 68.5742 58.4644 68.3691 58.1909C68.1689 57.9126 68.0469 57.605 68.0029 57.2681L67.9956 57.2095H66.7285L66.7358 57.29C66.7896 57.8516 66.9702 58.3569 67.2778 58.8062C67.5903 59.2505 68.0029 59.6021 68.5156 59.8608C69.0283 60.1196 69.6118 60.249 70.2661 60.249ZM82.0277 51.435V52.455H85.9277V51.435H82.0277ZM85.5377 47.625V57.66H86.7827V47.625H85.5377ZM78.0677 59.85V60.87H87.1127V59.85H78.0677ZM78.0677 56.685V60.375H79.3127V56.685H78.0677ZM76.2977 48.51V55.35H82.4177V48.51H81.2027V50.91H77.5277V48.51H76.2977ZM77.5277 51.885H81.2027V54.33H77.5277V51.885ZM103.495 47.595V61.185H104.74V47.595H103.495ZM97.5853 48.645C95.5903 48.645 94.1503 50.49 94.1503 53.37C94.1503 56.265 95.5903 58.11 97.5853 58.11C99.5953 58.11 101.035 56.265 101.035 53.37C101.035 50.49 99.5953 48.645 97.5853 48.645ZM97.5853 49.77C98.9203 49.77 99.8353 51.18 99.8353 53.37C99.8353 55.575 98.9203 57.015 97.5853 57.015C96.2653 57.015 95.3353 55.575 95.3353 53.37C95.3353 51.18 96.2653 49.77 97.5853 49.77ZM110.739 48.315V49.695C110.739 51.765 109.419 53.595 107.379 54.345L108.039 55.35C110.304 54.465 111.774 52.305 111.774 49.695V48.315H110.739ZM110.964 48.315V49.785C110.964 52.14 112.449 54.15 114.624 54.96L115.284 53.985C113.334 53.31 111.984 51.615 111.984 49.785V48.315H110.964ZM116.724 47.61V55.83H117.969V47.61H116.724ZM117.624 51.105V52.155H119.979V51.105H117.624ZM113.649 56.205C110.874 56.205 109.194 57.12 109.194 58.68C109.194 60.24 110.874 61.14 113.649 61.14C116.424 61.14 118.104 60.24 118.104 58.68C118.104 57.12 116.424 56.205 113.649 56.205ZM113.649 57.195C115.659 57.195 116.889 57.735 116.889 58.68C116.889 59.625 115.659 60.165 113.649 60.165C111.639 60.165 110.409 59.625 110.409 58.68C110.409 57.735 111.639 57.195 113.649 57.195ZM125.457 53.805V54.825H137.757V53.805H125.457ZM130.962 54.24V56.31H132.177V54.24H130.962ZM130.932 56.94V57.36C130.932 58.8 128.802 59.91 126.357 60.165L126.762 61.125C129.597 60.795 131.997 59.43 131.997 57.36V56.94H130.932ZM131.142 56.94V57.36C131.142 59.475 133.557 60.795 136.377 61.125L136.782 60.165C134.322 59.925 132.207 58.845 132.207 57.36V56.94H131.142ZM131.592 47.805C128.637 47.805 126.822 48.72 126.822 50.295C126.822 51.87 128.637 52.785 131.592 52.785C134.532 52.785 136.362 51.87 136.362 50.295C136.362 48.72 134.532 47.805 131.592 47.805ZM131.592 48.765C133.752 48.765 135.087 49.32 135.087 50.295C135.087 51.255 133.752 51.825 131.592 51.825C129.417 51.825 128.097 51.255 128.097 50.295C128.097 49.32 129.417 48.765 131.592 48.765ZM149.141 47.61V61.17H150.386V47.61H149.141ZM145.166 49.065V49.275C145.166 52.875 143.351 55.755 139.436 57.645L140.096 58.65C144.626 56.43 146.396 52.995 146.396 49.065H145.166ZM140.051 49.065V50.085H145.706V49.065H140.051Z" fill="#445060"/>
<rect y="97" width="316" height="84" rx="10" fill="#F3F5F6"/>
<path d="M25.8188 133.307C26.8094 133.307 27.6589 133.053 28.3672 132.543C29.0755 132.029 29.6206 131.301 30.0024 130.36C30.3843 129.42 30.5752 128.305 30.5752 127.015V126.999C30.5752 125.704 30.3843 124.589 30.0024 123.653C29.6206 122.713 29.0755 121.988 28.3672 121.479C27.6589 120.969 26.8094 120.715 25.8188 120.715C24.8338 120.715 23.9844 120.969 23.2705 121.479C22.5622 121.988 22.0171 122.713 21.6353 123.653C21.2534 124.589 21.0625 125.704 21.0625 126.999V127.015C21.0625 128.305 21.2534 129.42 21.6353 130.36C22.0171 131.301 22.5622 132.029 23.2705 132.543C23.9844 133.053 24.8338 133.307 25.8188 133.307ZM25.8188 131.323C25.3485 131.323 24.9473 131.152 24.6152 130.809C24.2887 130.465 24.0369 129.973 23.8599 129.331C23.6883 128.689 23.6025 127.917 23.6025 127.015V126.999C23.6025 126.091 23.6883 125.319 23.8599 124.683C24.0369 124.041 24.2887 123.551 24.6152 123.213C24.9473 122.87 25.3485 122.699 25.8188 122.699C26.2948 122.699 26.696 122.87 27.0225 123.213C27.3545 123.551 27.6063 124.041 27.7778 124.683C27.9549 125.319 28.0435 126.091 28.0435 126.999V127.015C28.0435 127.917 27.9549 128.689 27.7778 129.331C27.6063 129.973 27.3545 130.465 27.0225 130.809C26.696 131.152 26.2948 131.323 25.8188 131.323ZM32.8496 133H41.4907V130.983H35.5391L36.2114 131.423V130.327L35.5391 131.423L38.4277 128.725C39.1582 128.05 39.7337 127.461 40.1543 126.957C40.5749 126.453 40.8737 125.986 41.0508 125.554C41.2279 125.117 41.3164 124.672 41.3164 124.218V124.193C41.3164 123.501 41.1366 122.895 40.7769 122.375C40.4227 121.855 39.9302 121.448 39.2993 121.155C38.674 120.861 37.9491 120.715 37.1245 120.715C36.2502 120.715 35.481 120.878 34.8169 121.205C34.1584 121.531 33.641 121.985 33.2646 122.566C32.8939 123.147 32.7085 123.819 32.7085 124.583L32.7168 124.625H35.0327V124.583C35.0327 124.201 35.1157 123.869 35.2817 123.587C35.4478 123.299 35.6802 123.075 35.979 122.915C36.2778 122.749 36.6209 122.666 37.0083 122.666C37.3901 122.666 37.7194 122.74 37.9961 122.89C38.2728 123.034 38.4831 123.236 38.627 123.496C38.7764 123.756 38.8511 124.057 38.8511 124.4V124.425C38.8511 124.708 38.7902 124.981 38.6685 125.247C38.5467 125.507 38.3309 125.814 38.021 126.168C37.7111 126.517 37.2739 126.963 36.7095 127.505L32.8496 131.315V133Z" fill="#7A82F1"/>
<rect x="53" y="117.5" width="37" height="19" rx="5" fill="#2A63AD"/>
<path d="M61.572 122.459V123.207H67.446V122.459H61.572ZM64.509 123.713C63.079 123.713 62.122 124.417 62.122 125.517C62.122 126.606 63.079 127.299 64.509 127.299C65.917 127.299 66.885 126.606 66.885 125.517C66.885 124.417 65.917 123.713 64.509 123.713ZM64.509 124.428C65.4 124.428 66.016 124.846 66.016 125.517C66.016 126.166 65.4 126.595 64.509 126.595C63.596 126.595 62.991 126.166 62.991 125.517C62.991 124.846 63.596 124.428 64.509 124.428ZM68.348 121.414V127.629H69.261V121.414H68.348ZM69.008 124.153V124.912H70.735V124.153H69.008ZM62.804 128.168V128.916H68.348V131.358H69.261V128.168H62.804ZM64.047 121.359V122.877H64.96V121.359H64.047ZM76.6631 123.779V124.538H79.3361V123.779H76.6631ZM74.3751 121.865C72.8901 121.865 71.8121 122.811 71.8121 124.175C71.8121 125.539 72.8901 126.474 74.3751 126.474C75.8601 126.474 76.9381 125.539 76.9381 124.175C76.9381 122.811 75.8601 121.865 74.3751 121.865ZM74.3751 122.635C75.3541 122.635 76.0581 123.262 76.0581 124.175C76.0581 125.077 75.3541 125.715 74.3751 125.715C73.3961 125.715 72.6921 125.077 72.6921 124.175C72.6921 123.262 73.3961 122.635 74.3751 122.635ZM78.9291 121.414V126.749H79.8421V121.414H78.9291ZM73.4731 127.244V131.226H79.8421V127.244H78.9401V128.498H74.3861V127.244H73.4731ZM74.3861 129.224H78.9401V130.489H74.3861V129.224Z" fill="#F3F5F6"/>
<path d="M30.02 144.61V153.34H31.265V144.61H30.02ZM30.92 148.375V149.41H33.275V148.375H30.92ZM27.005 153.46C24.275 153.46 22.595 154.315 22.595 155.8C22.595 157.285 24.275 158.14 27.005 158.14C29.75 158.14 31.415 157.285 31.415 155.8C31.415 154.315 29.75 153.46 27.005 153.46ZM27.005 154.42C29 154.42 30.2 154.93 30.2 155.8C30.2 156.685 29 157.18 27.005 157.18C25.025 157.18 23.825 156.685 23.825 155.8C23.825 154.93 25.025 154.42 27.005 154.42ZM20.78 146.14V147.13H28.79V146.14H20.78ZM24.785 147.82C22.835 147.82 21.53 148.75 21.53 150.205C21.53 151.675 22.835 152.605 24.785 152.605C26.72 152.605 28.025 151.675 28.025 150.205C28.025 148.75 26.72 147.82 24.785 147.82ZM24.785 148.765C26 148.765 26.84 149.335 26.84 150.205C26.84 151.09 26 151.66 24.785 151.66C23.54 151.66 22.715 151.09 22.715 150.205C22.715 149.335 23.54 148.765 24.785 148.765ZM24.155 144.49V146.695H25.4V144.49H24.155ZM37.8338 145.315V146.695C37.8338 148.765 36.5138 150.595 34.4738 151.345L35.1338 152.35C37.3988 151.465 38.8688 149.305 38.8688 146.695V145.315H37.8338ZM38.0588 145.315V146.785C38.0588 149.14 39.5438 151.15 41.7188 151.96L42.3788 150.985C40.4288 150.31 39.0788 148.615 39.0788 146.785V145.315H38.0588ZM43.8188 144.61V152.83H45.0638V144.61H43.8188ZM44.7188 148.105V149.155H47.0738V148.105H44.7188ZM40.7438 153.205C37.9688 153.205 36.2888 154.12 36.2888 155.68C36.2888 157.24 37.9688 158.14 40.7438 158.14C43.5188 158.14 45.1988 157.24 45.1988 155.68C45.1988 154.12 43.5188 153.205 40.7438 153.205ZM40.7438 154.195C42.7538 154.195 43.9838 154.735 43.9838 155.68C43.9838 156.625 42.7538 157.165 40.7438 157.165C38.7338 157.165 37.5038 156.625 37.5038 155.68C37.5038 154.735 38.7338 154.195 40.7438 154.195ZM59.0614 146.83V147.85H62.6764V146.83H59.0614ZM58.9264 149.62V150.655H62.6014V149.62H58.9264ZM58.2364 145.48V146.005C58.2364 148.525 56.1514 150.505 52.7164 151.465L53.2114 152.44C57.1264 151.345 59.5414 148.9 59.5414 145.48H58.2364ZM53.4064 145.48V146.485H59.0464V145.48H53.4064ZM62.4664 144.61V152.365H63.7114V144.61H62.4664ZM54.9664 152.95V157.99H63.7114V152.95H54.9664ZM62.4964 153.94V156.97H56.1964V153.94H62.4964ZM67.9402 156.85V157.87H77.2552V156.85H67.9402ZM67.9402 153.985V157.21H69.1852V153.985H67.9402ZM66.3502 151.885V152.905H78.6502V151.885H66.3502ZM71.8552 149.605V152.26H73.0852V149.605H71.8552ZM71.8402 144.955V145.57C71.8402 147.46 69.5602 149.095 67.1452 149.485L67.6402 150.475C70.3702 149.95 72.9202 148.09 72.9202 145.57V144.955H71.8402ZM72.0352 144.955V145.57C72.0352 148.09 74.6002 149.935 77.3002 150.475L77.7952 149.485C75.4102 149.095 73.1002 147.46 73.1002 145.57V144.955H72.0352ZM89.4341 144.625V154.795H90.6791V144.625H89.4341ZM90.2891 149.065V150.115H92.6891V149.065H90.2891ZM80.1941 146.26V147.265H88.2041V146.26H80.1941ZM84.1991 148.015C82.2641 148.015 80.9441 149.02 80.9441 150.55C80.9441 152.065 82.2641 153.07 84.1991 153.07C86.1191 153.07 87.4391 152.065 87.4391 150.55C87.4391 149.02 86.1191 148.015 84.1991 148.015ZM84.1991 148.99C85.4141 148.99 86.2541 149.605 86.2541 150.55C86.2541 151.48 85.4141 152.095 84.1991 152.095C82.9691 152.095 82.1291 151.48 82.1291 150.55C82.1291 149.605 82.9691 148.99 84.1991 148.99ZM83.5691 144.61V146.785H84.8141V144.61H83.5691ZM82.2341 156.85V157.87H91.2941V156.85H82.2341ZM82.2341 153.985V157.285H83.4791V153.985H82.2341ZM98.7066 145.96V154.735H104.932V145.96H98.7066ZM103.717 146.965V153.73H99.9216V146.965H103.717ZM107.347 144.61V158.17H108.607V144.61H107.347ZM108.307 150.025V151.075H110.827V150.025H108.307ZM118.1 144.91C115.16 144.91 113.33 145.87 113.33 147.475C113.33 149.08 115.16 150.025 118.1 150.025C121.025 150.025 122.87 149.08 122.87 147.475C122.87 145.87 121.025 144.91 118.1 144.91ZM118.1 145.9C120.245 145.9 121.595 146.47 121.595 147.475C121.595 148.465 120.245 149.05 118.1 149.05C115.94 149.05 114.605 148.465 114.605 147.475C114.605 146.47 115.94 145.9 118.1 145.9ZM113.465 153.52V157.99H122.72V153.52H113.465ZM121.505 154.525V156.985H114.695V154.525H121.505ZM111.965 151.195V152.2H124.22V151.195H111.965ZM131.899 145.465C129.079 145.465 126.964 146.965 126.964 149.215C126.964 151.48 129.079 152.965 131.899 152.965C134.719 152.965 136.819 151.48 136.819 149.215C136.819 146.965 134.719 145.465 131.899 145.465ZM131.899 146.485C134.044 146.485 135.634 147.58 135.634 149.215C135.634 150.835 134.044 151.945 131.899 151.945C129.754 151.945 128.164 150.835 128.164 149.215C128.164 147.58 129.754 146.485 131.899 146.485ZM125.779 155.335V156.385H138.064V155.335H125.779ZM139.578 155.47V156.505H151.863V155.47H139.578ZM145.068 152.56V155.905H146.313V152.56H145.068ZM141.063 145.615V146.62H149.118V148.72H141.108V152.44H142.338V149.725H150.348V145.615H141.063ZM141.108 151.915V152.935H150.663V151.915H141.108ZM158.076 145.885V154.78H163.251V145.885H162.096V149.2H159.261V145.885H158.076ZM159.261 150.205H162.096V153.76H159.261V150.205ZM167.916 144.61V158.17H169.116V144.61H167.916ZM165.741 149.98V151H168.351V149.98H165.741ZM164.916 144.895V157.495H166.101V144.895H164.916ZM171.38 152.38V153.4H183.68V152.38H171.38ZM176.87 153.01V158.17H178.1V153.01H176.87ZM177.5 145.15C174.68 145.15 172.76 146.305 172.76 148.12C172.76 149.935 174.68 151.09 177.5 151.09C180.335 151.09 182.24 149.935 182.24 148.12C182.24 146.305 180.335 145.15 177.5 145.15ZM177.5 146.155C179.57 146.155 180.965 146.92 180.965 148.12C180.965 149.32 179.57 150.085 177.5 150.085C175.43 150.085 174.02 149.32 174.02 148.12C174.02 146.92 175.43 146.155 177.5 146.155ZM195.063 144.61V158.17H196.308V144.61H195.063ZM191.088 146.065V146.275C191.088 149.875 189.273 152.755 185.358 154.645L186.018 155.65C190.548 153.43 192.318 149.995 192.318 146.065H191.088ZM185.973 146.065V147.085H191.628V146.065H185.973Z" fill="#445060"/>
<rect y="194" width="316" height="84" rx="10" fill="#F3F5F6"/>
<path d="M25.8188 230.307C26.8094 230.307 27.6589 230.053 28.3672 229.543C29.0755 229.029 29.6206 228.301 30.0024 227.36C30.3843 226.42 30.5752 225.305 30.5752 224.015V223.999C30.5752 222.704 30.3843 221.589 30.0024 220.653C29.6206 219.713 29.0755 218.988 28.3672 218.479C27.6589 217.969 26.8094 217.715 25.8188 217.715C24.8338 217.715 23.9844 217.969 23.2705 218.479C22.5622 218.988 22.0171 219.713 21.6353 220.653C21.2534 221.589 21.0625 222.704 21.0625 223.999V224.015C21.0625 225.305 21.2534 226.42 21.6353 227.36C22.0171 228.301 22.5622 229.029 23.2705 229.543C23.9844 230.053 24.8338 230.307 25.8188 230.307ZM25.8188 228.323C25.3485 228.323 24.9473 228.152 24.6152 227.809C24.2887 227.465 24.0369 226.973 23.8599 226.331C23.6883 225.689 23.6025 224.917 23.6025 224.015V223.999C23.6025 223.091 23.6883 222.319 23.8599 221.683C24.0369 221.041 24.2887 220.551 24.6152 220.213C24.9473 219.87 25.3485 219.699 25.8188 219.699C26.2948 219.699 26.696 219.87 27.0225 220.213C27.3545 220.551 27.6063 221.041 27.7778 221.683C27.9549 222.319 28.0435 223.091 28.0435 223.999V224.015C28.0435 224.917 27.9549 225.689 27.7778 226.331C27.6063 226.973 27.3545 227.465 27.0225 227.809C26.696 228.152 26.2948 228.323 25.8188 228.323ZM37.1909 230.266C38.1261 230.266 38.9424 230.113 39.6396 229.809C40.3369 229.505 40.8792 229.079 41.2666 228.531C41.6595 227.983 41.856 227.347 41.856 226.622V226.605C41.856 225.792 41.5876 225.139 41.0508 224.646C40.514 224.153 39.8001 223.866 38.9092 223.783V223.733C39.3796 223.633 39.8029 223.462 40.1792 223.218C40.5555 222.975 40.8543 222.665 41.0757 222.289C41.297 221.912 41.4077 221.475 41.4077 220.977V220.96C41.4077 220.319 41.2334 219.76 40.8848 219.284C40.5417 218.802 40.0519 218.429 39.4155 218.163C38.7791 217.892 38.0321 217.756 37.1743 217.756C36.3332 217.756 35.5944 217.903 34.958 218.196C34.3271 218.484 33.8236 218.894 33.4473 219.425C33.0765 219.951 32.8607 220.573 32.7998 221.292L32.7915 221.392H35.0991L35.1074 221.317C35.1406 220.985 35.2458 220.698 35.4229 220.454C35.5999 220.205 35.8379 220.014 36.1367 219.881C36.4355 219.749 36.7814 219.682 37.1743 219.682C37.5672 219.682 37.902 219.749 38.1787 219.881C38.4609 220.009 38.674 220.194 38.8179 220.438C38.9673 220.675 39.042 220.96 39.042 221.292V221.309C39.042 221.63 38.9562 221.915 38.7847 222.164C38.6131 222.408 38.3724 222.598 38.0625 222.737C37.7526 222.875 37.3874 222.944 36.9668 222.944H35.6304V224.729H37C37.7249 224.729 38.2894 224.881 38.6934 225.186C39.1029 225.49 39.3076 225.93 39.3076 226.505V226.522C39.3076 226.86 39.2191 227.158 39.042 227.418C38.8704 227.679 38.6242 227.883 38.3032 228.033C37.9878 228.177 37.617 228.249 37.1909 228.249C36.5435 228.249 36.0177 228.099 35.6138 227.8C35.2153 227.501 34.9884 227.12 34.9331 226.655L34.9248 226.563H32.5259L32.5342 226.671C32.5951 227.385 32.8219 228.013 33.2148 228.556C33.6077 229.092 34.1418 229.513 34.8169 229.817C35.4976 230.116 36.2889 230.266 37.1909 230.266Z" fill="#7A82F1"/>
<rect x="53" y="214.5" width="37" height="19" rx="5" fill="#69B0F9"/>
<path d="M68.777 218.425V225.685H69.701V218.425H68.777ZM63.31 227.39V228.138H69.998V227.39H63.31ZM63.31 224.937V227.643H64.212V224.937H63.31ZM64.366 219.107C62.881 219.107 61.77 220.119 61.77 221.56C61.77 222.99 62.881 224.013 64.366 224.013C65.851 224.013 66.951 222.99 66.951 221.56C66.951 220.119 65.851 219.107 64.366 219.107ZM64.366 219.899C65.334 219.899 66.071 220.581 66.071 221.56C66.071 222.528 65.334 223.21 64.366 223.21C63.398 223.21 62.661 222.528 62.661 221.56C62.661 220.581 63.398 219.899 64.366 219.899ZM73.7481 219.03V220.361C73.7481 221.483 72.9671 222.77 71.6581 223.342L72.1531 224.057C73.6161 223.408 74.4741 221.846 74.4741 220.361V219.03H73.7481ZM73.8911 219.03V220.361C73.8911 221.824 74.7161 223.199 76.1461 223.771L76.6411 223.078C75.3651 222.583 74.6171 221.461 74.6171 220.361V219.03H73.8911ZM79.1711 218.425V224.552H80.0401V218.425H79.1711ZM77.5871 221.076V221.824H79.4681V221.076H77.5871ZM77.0371 218.612V224.233H77.9061V218.612H77.0371ZM76.7731 224.772C74.7161 224.772 73.4621 225.432 73.4621 226.565C73.4621 227.687 74.7161 228.336 76.7731 228.336C78.8191 228.336 80.0951 227.687 80.0951 226.565C80.0951 225.432 78.8191 224.772 76.7731 224.772ZM76.7731 225.487C78.2691 225.487 79.1821 225.883 79.1821 226.565C79.1821 227.236 78.2691 227.632 76.7731 227.632C75.2771 227.632 74.3531 227.236 74.3531 226.565C74.3531 225.883 75.2771 225.487 76.7731 225.487Z" fill="#F3F5F6"/>
<path d="M22.31 242.315V243.335H31.04V242.315H22.31ZM20.735 247.415V248.42H33.035V247.415H20.735ZM30.23 242.315V243.32C30.23 244.445 30.23 245.75 29.78 247.595L30.995 247.745C31.445 245.855 31.445 244.475 31.445 243.32V242.315H30.23ZM26.855 250.04C23.945 250.04 22.16 250.97 22.16 252.59C22.16 254.21 23.945 255.14 26.855 255.14C29.765 255.14 31.565 254.21 31.565 252.59C31.565 250.97 29.765 250.04 26.855 250.04ZM26.855 251.06C29 251.06 30.305 251.615 30.305 252.59C30.305 253.565 29 254.12 26.855 254.12C24.71 254.12 23.405 253.565 23.405 252.59C23.405 251.615 24.71 251.06 26.855 251.06ZM41.7788 245.12V246.155H44.8388V245.12H41.7788ZM44.4488 241.61V249.695H45.6938V241.61H44.4488ZM41.2388 250.1C38.4338 250.1 36.7088 251.045 36.7088 252.635C36.7088 254.24 38.4338 255.155 41.2388 255.155C44.0288 255.155 45.7538 254.24 45.7538 252.635C45.7538 251.045 44.0288 250.1 41.2388 250.1ZM41.2388 251.075C43.2788 251.075 44.5238 251.645 44.5238 252.635C44.5238 253.61 43.2788 254.18 41.2388 254.18C39.1988 254.18 37.9538 253.61 37.9538 252.635C37.9538 251.645 39.1988 251.075 41.2388 251.075ZM37.9988 242.975V244.07C37.9988 246.02 36.6038 247.835 34.5938 248.57L35.2388 249.56C37.4888 248.72 39.0188 246.575 39.0188 244.07V242.975H37.9988ZM38.2388 242.975V244.07C38.2388 246.35 39.6938 248.39 41.8988 249.185L42.5288 248.195C40.5638 247.505 39.2438 245.825 39.2438 244.07V242.975H38.2388ZM34.9688 242.6V243.62H42.2138V242.6H34.9688ZM51.7977 242.99V244.085C51.7977 246.005 50.4027 247.805 48.3777 248.525L49.0227 249.515C51.2877 248.675 52.8177 246.56 52.8177 244.085V242.99H51.7977ZM52.0377 242.99V244.085C52.0377 246.35 53.4927 248.39 55.6977 249.2L56.3277 248.21C54.3627 247.52 53.0427 245.825 53.0427 244.085V242.99H52.0377ZM55.5927 245.135V246.17H58.6077V245.135H55.5927ZM48.7677 242.54V243.545H56.0127V242.54H48.7677ZM50.4477 250.46V251.48H58.2477V255.17H59.4927V250.46H50.4477ZM58.2477 241.61V249.725H59.4927V241.61H58.2477ZM72.0015 241.625V251.525H73.2615V241.625H72.0015ZM64.5465 253.85V254.87H73.6665V253.85H64.5465ZM64.5465 250.505V254.195H65.7765V250.505H64.5465ZM65.9865 242.555C63.9615 242.555 62.4465 243.935 62.4465 245.9C62.4465 247.85 63.9615 249.245 65.9865 249.245C68.0115 249.245 69.5115 247.85 69.5115 245.9C69.5115 243.935 68.0115 242.555 65.9865 242.555ZM65.9865 243.635C67.3065 243.635 68.3115 244.565 68.3115 245.9C68.3115 247.22 67.3065 248.15 65.9865 248.15C64.6665 248.15 63.6615 247.22 63.6615 245.9C63.6615 244.565 64.6665 243.635 65.9865 243.635ZM82.9991 242.45V244.265C82.9991 245.795 81.9341 247.55 80.1491 248.33L80.8241 249.305C82.8191 248.42 83.9891 246.29 83.9891 244.265V242.45H82.9991ZM83.1941 242.45V244.265C83.1941 246.26 84.3191 248.135 86.2691 248.915L86.9441 247.97C85.2041 247.295 84.1841 245.765 84.1841 244.265V242.45H83.1941ZM90.3941 241.625V249.98H91.5791V241.625H90.3941ZM88.2341 245.24V246.26H90.7991V245.24H88.2341ZM87.4841 241.88V249.545H88.6691V241.88H87.4841ZM87.1241 250.28C84.3191 250.28 82.6091 251.18 82.6091 252.725C82.6091 254.255 84.3191 255.14 87.1241 255.14C89.9141 255.14 91.6541 254.255 91.6541 252.725C91.6541 251.18 89.9141 250.28 87.1241 250.28ZM87.1241 251.255C89.1641 251.255 90.4091 251.795 90.4091 252.725C90.4091 253.64 89.1641 254.18 87.1241 254.18C85.0841 254.18 83.8241 253.64 83.8241 252.725C83.8241 251.795 85.0841 251.255 87.1241 251.255ZM103.233 241.61V249.56H104.478V241.61H103.233ZM104.133 245.03V246.08H106.488V245.03H104.133ZM99.4829 242.48V243.02C99.4829 245.525 97.4429 247.49 93.9329 248.45L94.4429 249.425C98.4029 248.345 100.788 245.9 100.788 242.48H99.4829ZM94.5329 242.48V243.485H100.173V242.48H94.5329ZM95.6729 250.19V251.195H103.233V255.17H104.478V250.19H95.6729ZM116.942 241.61V255.17H118.187V241.61H116.942ZM117.887 247.175V248.225H120.407V247.175H117.887ZM107.687 243.77V244.79H115.682V243.77H107.687ZM111.737 245.915C109.832 245.915 108.437 247.205 108.437 249.035C108.437 250.865 109.832 252.155 111.737 252.155C113.657 252.155 115.037 250.865 115.037 249.035C115.037 247.205 113.657 245.915 111.737 245.915ZM111.737 246.95C112.967 246.95 113.852 247.805 113.852 249.035C113.852 250.25 112.967 251.12 111.737 251.12C110.507 251.12 109.622 250.25 109.622 249.035C109.622 247.805 110.507 246.95 111.737 246.95ZM111.092 241.775V244.235H112.337V241.775H111.092ZM131.431 241.61V255.17H132.676V241.61H131.431ZM127.456 243.065V243.275C127.456 246.875 125.641 249.755 121.726 251.645L122.386 252.65C126.916 250.43 128.686 246.995 128.686 243.065H127.456ZM122.341 243.065V244.085H127.996V243.065H122.341Z" fill="#445060"/>
<rect y="291" width="316" height="84" rx="10" fill="#F3F5F6"/>
<path d="M25.8188 327.307C26.8094 327.307 27.6589 327.053 28.3672 326.543C29.0755 326.029 29.6206 325.301 30.0024 324.36C30.3843 323.42 30.5752 322.305 30.5752 321.015V320.999C30.5752 319.704 30.3843 318.589 30.0024 317.653C29.6206 316.713 29.0755 315.988 28.3672 315.479C27.6589 314.969 26.8094 314.715 25.8188 314.715C24.8338 314.715 23.9844 314.969 23.2705 315.479C22.5622 315.988 22.0171 316.713 21.6353 317.653C21.2534 318.589 21.0625 319.704 21.0625 320.999V321.015C21.0625 322.305 21.2534 323.42 21.6353 324.36C22.0171 325.301 22.5622 326.029 23.2705 326.543C23.9844 327.053 24.8338 327.307 25.8188 327.307ZM25.8188 325.323C25.3485 325.323 24.9473 325.152 24.6152 324.809C24.2887 324.465 24.0369 323.973 23.8599 323.331C23.6883 322.689 23.6025 321.917 23.6025 321.015V320.999C23.6025 320.091 23.6883 319.319 23.8599 318.683C24.0369 318.041 24.2887 317.551 24.6152 317.213C24.9473 316.87 25.3485 316.699 25.8188 316.699C26.2948 316.699 26.696 316.87 27.0225 317.213C27.3545 317.551 27.6063 318.041 27.7778 318.683C27.9549 319.319 28.0435 320.091 28.0435 320.999V321.015C28.0435 321.917 27.9549 322.689 27.7778 323.331C27.6063 323.973 27.3545 324.465 27.0225 324.809C26.696 325.152 26.2948 325.323 25.8188 325.323ZM38.4028 327H40.7935V324.8H42.354V322.792H40.7935V315.022H37.2739C36.953 315.514 36.632 316.015 36.311 316.524C35.9901 317.028 35.6691 317.54 35.3481 318.06C35.0327 318.575 34.7145 319.098 34.3936 319.629C34.0781 320.155 33.7655 320.686 33.4556 321.223C33.1457 321.754 32.8385 322.291 32.5342 322.833V324.8H38.4028V327ZM34.792 322.858V322.725C35.0078 322.338 35.2292 321.948 35.4561 321.555C35.6885 321.156 35.9237 320.761 36.1616 320.368C36.4051 319.969 36.6458 319.574 36.8838 319.181C37.1273 318.788 37.368 318.403 37.606 318.027C37.8494 317.651 38.0874 317.283 38.3198 316.923H38.4526V322.858H34.792Z" fill="#7A82F1"/>
<rect x="54" y="311.5" width="37" height="19" rx="5" fill="#4A9AF8"/>
<path d="M65.377 317.152V317.284C65.377 318.34 64.409 319.264 62.99 319.583L63.364 320.309C65.047 319.891 66.125 318.747 66.125 317.284V317.152H65.377ZM65.542 317.152V317.284C65.542 318.681 66.62 319.77 68.281 320.166L68.655 319.451C67.247 319.132 66.29 318.285 66.29 317.284V317.152H65.542ZM63.199 316.536V317.262H68.468V316.536H63.199ZM65.366 315.436V317.02H66.29V315.436H65.366ZM65.388 321.101V325.072H66.301V321.101H65.388ZM69.788 315.414V325.369H70.69V315.414H69.788ZM62.649 321.772C64.497 321.772 66.917 321.739 69.15 321.354L69.084 320.683C66.906 320.991 64.409 321.002 62.528 321.002L62.649 321.772ZM77.6631 317.779V318.538H80.3361V317.779H77.6631ZM75.3751 315.865C73.8901 315.865 72.8121 316.811 72.8121 318.175C72.8121 319.539 73.8901 320.474 75.3751 320.474C76.8601 320.474 77.9381 319.539 77.9381 318.175C77.9381 316.811 76.8601 315.865 75.3751 315.865ZM75.3751 316.635C76.3541 316.635 77.0581 317.262 77.0581 318.175C77.0581 319.077 76.3541 319.715 75.3751 319.715C74.3961 319.715 73.6921 319.077 73.6921 318.175C73.6921 317.262 74.3961 316.635 75.3751 316.635ZM79.9291 315.414V320.749H80.8421V315.414H79.9291ZM74.4731 321.244V325.226H80.8421V321.244H79.9401V322.498H75.3861V321.244H74.4731ZM75.3861 323.224H79.9401V324.489H75.3861V323.224Z" fill="#F3F5F6"/>
<path d="M24.545 339.105C22.535 339.105 21.05 340.335 21.05 342.12C21.05 343.89 22.535 345.12 24.545 345.12C26.57 345.12 28.055 343.89 28.055 342.12C28.055 340.335 26.57 339.105 24.545 339.105ZM24.545 340.125C25.865 340.125 26.84 340.95 26.84 342.12C26.84 343.29 25.865 344.1 24.545 344.1C23.24 344.1 22.25 343.29 22.25 342.12C22.25 340.95 23.24 340.125 24.545 340.125ZM30.605 338.61V345.555H31.865V338.61H30.605ZM23.09 346.215V347.22H30.635V348.585H23.12V351.555H24.335V349.515H31.865V346.215H23.09ZM23.12 351V351.99H32.315V351H23.12ZM44.3888 338.595V352.185H45.6338V338.595H44.3888ZM38.4788 339.645C36.4838 339.645 35.0438 341.49 35.0438 344.37C35.0438 347.265 36.4838 349.11 38.4788 349.11C40.4888 349.11 41.9288 347.265 41.9288 344.37C41.9288 341.49 40.4888 339.645 38.4788 339.645ZM38.4788 340.77C39.8138 340.77 40.7288 342.18 40.7288 344.37C40.7288 346.575 39.8138 348.015 38.4788 348.015C37.1588 348.015 36.2288 346.575 36.2288 344.37C36.2288 342.18 37.1588 340.77 38.4788 340.77ZM51.6777 339.3V340.635C51.6777 342.705 50.3427 344.52 48.2877 345.27L48.9477 346.26C51.2277 345.39 52.6977 343.26 52.6977 340.635V339.3H51.6777ZM51.9027 339.3V340.62C51.9027 343.005 53.3727 345.06 55.5627 345.885L56.2077 344.895C54.2577 344.205 52.9077 342.465 52.9077 340.62V339.3H51.9027ZM57.6177 338.61V346.545H58.8627V338.61H57.6177ZM58.5177 341.97V343.02H60.8727V341.97H58.5177ZM50.3427 347.175V351.99H58.8627V347.175H50.3427ZM57.6477 348.165V350.985H51.5577V348.165H57.6477ZM65.4615 339.78V342.21C65.4615 344.685 63.9165 347.295 61.9515 348.285L62.7165 349.275C64.8615 348.135 66.4815 345.21 66.4815 342.21V339.78H65.4615ZM65.6865 339.78V342.21C65.6865 345.12 67.2615 347.895 69.3615 349.02L70.1265 348.03C68.2065 347.07 66.6915 344.595 66.6915 342.21V339.78H65.6865ZM71.3115 338.61V352.17H72.5715V338.61H71.3115ZM72.2715 344.1V345.15H74.7915V344.1H72.2715ZM81.4353 346.275V349.65H82.6803V346.275H81.4353ZM82.0653 339.495C79.2003 339.495 77.1303 340.89 77.1303 343.05C77.1303 345.21 79.2003 346.605 82.0653 346.605C84.9303 346.605 86.9853 345.21 86.9853 343.05C86.9853 340.89 84.9303 339.495 82.0653 339.495ZM82.0653 340.485C84.2103 340.485 85.7853 341.505 85.7853 343.05C85.7853 344.595 84.2103 345.615 82.0653 345.615C79.9053 345.615 78.3303 344.595 78.3303 343.05C78.3303 341.505 79.9053 340.485 82.0653 340.485ZM75.9453 349.41V350.445H88.2303V349.41H75.9453ZM92.9691 345.63V348.3H94.2141V345.63H92.9691ZM97.5291 345.615V348.3H98.7591V345.615H97.5291ZM89.7291 345.135V346.155H101.984V345.135H89.7291ZM91.0941 347.85V348.855H99.2241V352.17H100.469V347.85H91.0941ZM95.8641 338.925C92.9241 338.925 91.0941 339.9 91.0941 341.52C91.0941 343.14 92.9241 344.115 95.8641 344.115C98.7891 344.115 100.634 343.14 100.634 341.52C100.634 339.9 98.7891 338.925 95.8641 338.925ZM95.8641 339.915C98.0091 339.915 99.3591 340.5 99.3591 341.52C99.3591 342.525 98.0091 343.125 95.8641 343.125C93.7041 343.125 92.3691 342.525 92.3691 341.52C92.3691 340.5 93.7041 339.915 95.8641 339.915ZM113.398 338.61V345.78H114.658V338.61H113.398ZM105.883 346.44V347.4H113.428V348.69H105.913V351.48H107.128V349.605H114.658V346.44H105.883ZM105.913 351.045V352.02H115.108V351.045H105.913ZM107.218 340.65V340.89C107.218 342.615 105.793 344.13 103.783 344.715L104.338 345.675C106.648 344.985 108.223 343.155 108.223 340.89V340.65H107.218ZM107.428 340.65V340.89C107.428 343.065 109.048 344.82 111.358 345.465L111.913 344.505C109.903 343.965 108.448 342.525 108.448 340.89V340.65H107.428ZM104.128 340.035V341.055H111.508V340.035H104.128ZM107.218 338.505V340.515H108.448V338.505H107.218ZM117.747 339.525V340.515H124.992V339.525H117.747ZM117.507 345.18C119.847 345.165 122.967 345.135 125.697 344.715L125.622 343.8C122.967 344.115 119.742 344.145 117.372 344.145L117.507 345.18ZM119.082 339.945V344.73H120.282V339.945H119.082ZM122.442 339.945V344.73H123.642V339.945H122.442ZM126.612 338.61V345.63H127.857V338.61H126.612ZM127.317 341.565V342.6H129.852V341.565H127.317ZM119.247 346.29V347.28H126.642V348.615H119.277V351.57H120.507V349.56H127.857V346.29H119.247ZM119.277 351.03V352.02H128.352V351.03H119.277ZM132.671 339.495V340.5H141.146V339.495H132.671ZM131.141 345.315V346.335H143.396V345.315H131.141ZM136.616 345.99V352.185H137.861V345.99H136.616ZM140.561 339.495V340.665C140.561 342.03 140.561 343.605 140.036 345.795L141.266 345.96C141.776 343.665 141.776 342.075 141.776 340.665V339.495H140.561ZM148.464 339.06V340.32C148.464 342.27 147.054 344.055 145.014 344.775L145.644 345.765C147.939 344.955 149.499 342.825 149.499 340.32V339.06H148.464ZM148.689 339.06V340.32C148.689 342.735 150.249 344.73 152.529 345.51L153.144 344.52C151.134 343.875 149.709 342.195 149.709 340.32V339.06H148.689ZM154.794 338.61V345.885H156.054V338.61H154.794ZM147.309 346.56V351.99H156.054V346.56H154.824V348.21H148.539V346.56H147.309ZM148.539 349.2H154.824V350.985H148.539V349.2ZM162.533 339.105C160.523 339.105 159.038 340.335 159.038 342.12C159.038 343.89 160.523 345.12 162.533 345.12C164.558 345.12 166.043 343.89 166.043 342.12C166.043 340.335 164.558 339.105 162.533 339.105ZM162.533 340.125C163.853 340.125 164.828 340.95 164.828 342.12C164.828 343.29 163.853 344.1 162.533 344.1C161.228 344.1 160.238 343.29 160.238 342.12C160.238 340.95 161.228 340.125 162.533 340.125ZM168.593 338.61V345.555H169.853V338.61H168.593ZM161.078 346.215V347.22H168.623V348.585H161.108V351.555H162.323V349.515H169.853V346.215H161.078ZM161.108 351V351.99H170.303V351H161.108ZM182.377 338.595V352.185H183.622V338.595H182.377ZM176.467 339.645C174.472 339.645 173.032 341.49 173.032 344.37C173.032 347.265 174.472 349.11 176.467 349.11C178.477 349.11 179.917 347.265 179.917 344.37C179.917 341.49 178.477 339.645 176.467 339.645ZM176.467 340.77C177.802 340.77 178.717 342.18 178.717 344.37C178.717 346.575 177.802 348.015 176.467 348.015C175.147 348.015 174.217 346.575 174.217 344.37C174.217 342.18 175.147 340.77 176.467 340.77ZM189.666 339.3V340.635C189.666 342.705 188.331 344.52 186.276 345.27L186.936 346.26C189.216 345.39 190.686 343.26 190.686 340.635V339.3H189.666ZM189.891 339.3V340.62C189.891 343.005 191.361 345.06 193.551 345.885L194.196 344.895C192.246 344.205 190.896 342.465 190.896 340.62V339.3H189.891ZM195.606 338.61V346.545H196.851V338.61H195.606ZM196.506 341.97V343.02H198.861V341.97H196.506ZM188.331 347.175V351.99H196.851V347.175H188.331ZM195.636 348.165V350.985H189.546V348.165H195.636ZM203.45 339.78V342.21C203.45 344.685 201.905 347.295 199.94 348.285L200.705 349.275C202.85 348.135 204.47 345.21 204.47 342.21V339.78H203.45ZM203.675 339.78V342.21C203.675 345.12 205.25 347.895 207.35 349.02L208.115 348.03C206.195 347.07 204.68 344.595 204.68 342.21V339.78H203.675ZM209.3 338.61V352.17H210.56V338.61H209.3ZM210.26 344.1V345.15H212.78V344.1H210.26ZM219.424 346.275V349.65H220.669V346.275H219.424ZM220.054 339.495C217.189 339.495 215.119 340.89 215.119 343.05C215.119 345.21 217.189 346.605 220.054 346.605C222.919 346.605 224.974 345.21 224.974 343.05C224.974 340.89 222.919 339.495 220.054 339.495ZM220.054 340.485C222.199 340.485 223.774 341.505 223.774 343.05C223.774 344.595 222.199 345.615 220.054 345.615C217.894 345.615 216.319 344.595 216.319 343.05C216.319 341.505 217.894 340.485 220.054 340.485ZM213.934 349.41V350.445H226.219V349.41H213.934ZM230.957 345.63V348.3H232.202V345.63H230.957ZM235.517 345.615V348.3H236.747V345.615H235.517ZM227.717 345.135V346.155H239.972V345.135H227.717ZM229.082 347.85V348.855H237.212V352.17H238.457V347.85H229.082ZM233.852 338.925C230.912 338.925 229.082 339.9 229.082 341.52C229.082 343.14 230.912 344.115 233.852 344.115C236.777 344.115 238.622 343.14 238.622 341.52C238.622 339.9 236.777 338.925 233.852 338.925ZM233.852 339.915C235.997 339.915 237.347 340.5 237.347 341.52C237.347 342.525 235.997 343.125 233.852 343.125C231.692 343.125 230.357 342.525 230.357 341.52C230.357 340.5 231.692 339.915 233.852 339.915ZM251.386 338.61V345.78H252.646V338.61H251.386ZM243.871 346.44V347.4H251.416V348.69H243.901V351.48H245.116V349.605H252.646V346.44H243.871ZM243.901 351.045V352.02H253.096V351.045H243.901ZM245.206 340.65V340.89C245.206 342.615 243.781 344.13 241.771 344.715L242.326 345.675C244.636 344.985 246.211 343.155 246.211 340.89V340.65H245.206ZM245.416 340.65V340.89C245.416 343.065 247.036 344.82 249.346 345.465L249.901 344.505C247.891 343.965 246.436 342.525 246.436 340.89V340.65H245.416ZM242.116 340.035V341.055H249.496V340.035H242.116ZM245.206 338.505V340.515H246.436V338.505H245.206ZM255.735 339.525V340.515H262.98V339.525H255.735ZM255.495 345.18C257.835 345.165 260.955 345.135 263.685 344.715L263.61 343.8C260.955 344.115 257.73 344.145 255.36 344.145L255.495 345.18ZM257.07 339.945V344.73H258.27V339.945H257.07ZM260.43 339.945V344.73H261.63V339.945H260.43ZM264.6 338.61V345.63H265.845V338.61H264.6ZM265.305 341.565V342.6H267.84V341.565H265.305ZM257.235 346.29V347.28H264.63V348.615H257.265V351.57H258.495V349.56H265.845V346.29H257.235ZM257.265 351.03V352.02H266.34V351.03H257.265ZM270.659 339.495V340.5H279.134V339.495H270.659ZM269.129 345.315V346.335H281.384V345.315H269.129ZM274.604 345.99V352.185H275.849V345.99H274.604ZM278.549 339.495V340.665C278.549 342.03 278.549 343.605 278.024 345.795L279.254 345.96C279.764 343.665 279.764 342.075 279.764 340.665V339.495H278.549ZM286.453 339.06V340.32C286.453 342.27 285.043 344.055 283.003 344.775L283.633 345.765C285.928 344.955 287.488 342.825 287.488 340.32V339.06H286.453ZM286.678 339.06V340.32C286.678 342.735 288.238 344.73 290.518 345.51L291.133 344.52C289.123 343.875 287.698 342.195 287.698 340.32V339.06H286.678ZM292.783 338.61V345.885H294.043V338.61H292.783ZM285.298 346.56V351.99H294.043V346.56H292.813V348.21H286.528V346.56H285.298ZM286.528 349.2H292.813V350.985H286.528V349.2Z" fill="#445060"/>
<rect y="291" width="316" height="84" rx="10" fill="#F3F5F6"/>
<path d="M25.8188 327.307C26.8094 327.307 27.6589 327.053 28.3672 326.543C29.0755 326.029 29.6206 325.301 30.0024 324.36C30.3843 323.42 30.5752 322.305 30.5752 321.015V320.999C30.5752 319.704 30.3843 318.589 30.0024 317.653C29.6206 316.713 29.0755 315.988 28.3672 315.479C27.6589 314.969 26.8094 314.715 25.8188 314.715C24.8338 314.715 23.9844 314.969 23.2705 315.479C22.5622 315.988 22.0171 316.713 21.6353 317.653C21.2534 318.589 21.0625 319.704 21.0625 320.999V321.015C21.0625 322.305 21.2534 323.42 21.6353 324.36C22.0171 325.301 22.5622 326.029 23.2705 326.543C23.9844 327.053 24.8338 327.307 25.8188 327.307ZM25.8188 325.323C25.3485 325.323 24.9473 325.152 24.6152 324.809C24.2887 324.465 24.0369 323.973 23.8599 323.331C23.6883 322.689 23.6025 321.917 23.6025 321.015V320.999C23.6025 320.091 23.6883 319.319 23.8599 318.683C24.0369 318.041 24.2887 317.551 24.6152 317.213C24.9473 316.87 25.3485 316.699 25.8188 316.699C26.2948 316.699 26.696 316.87 27.0225 317.213C27.3545 317.551 27.6063 318.041 27.7778 318.683C27.9549 319.319 28.0435 320.091 28.0435 320.999V321.015C28.0435 321.917 27.9549 322.689 27.7778 323.331C27.6063 323.973 27.3545 324.465 27.0225 324.809C26.696 325.152 26.2948 325.323 25.8188 325.323ZM38.4028 327H40.7935V324.8H42.354V322.792H40.7935V315.022H37.2739C36.953 315.514 36.632 316.015 36.311 316.524C35.9901 317.028 35.6691 317.54 35.3481 318.06C35.0327 318.575 34.7145 319.098 34.3936 319.629C34.0781 320.155 33.7655 320.686 33.4556 321.223C33.1457 321.754 32.8385 322.291 32.5342 322.833V324.8H38.4028V327ZM34.792 322.858V322.725C35.0078 322.338 35.2292 321.948 35.4561 321.555C35.6885 321.156 35.9237 320.761 36.1616 320.368C36.4051 319.969 36.6458 319.574 36.8838 319.181C37.1273 318.788 37.368 318.403 37.606 318.027C37.8494 317.651 38.0874 317.283 38.3198 316.923H38.4526V322.858H34.792Z" fill="#7A82F1"/>
<rect x="54" y="311.5" width="37" height="19" rx="5" fill="#4A9AF8"/>
<path d="M65.377 317.152V317.284C65.377 318.34 64.409 319.264 62.99 319.583L63.364 320.309C65.047 319.891 66.125 318.747 66.125 317.284V317.152H65.377ZM65.542 317.152V317.284C65.542 318.681 66.62 319.77 68.281 320.166L68.655 319.451C67.247 319.132 66.29 318.285 66.29 317.284V317.152H65.542ZM63.199 316.536V317.262H68.468V316.536H63.199ZM65.366 315.436V317.02H66.29V315.436H65.366ZM65.388 321.101V325.072H66.301V321.101H65.388ZM69.788 315.414V325.369H70.69V315.414H69.788ZM62.649 321.772C64.497 321.772 66.917 321.739 69.15 321.354L69.084 320.683C66.906 320.991 64.409 321.002 62.528 321.002L62.649 321.772ZM77.6631 317.779V318.538H80.3361V317.779H77.6631ZM75.3751 315.865C73.8901 315.865 72.8121 316.811 72.8121 318.175C72.8121 319.539 73.8901 320.474 75.3751 320.474C76.8601 320.474 77.9381 319.539 77.9381 318.175C77.9381 316.811 76.8601 315.865 75.3751 315.865ZM75.3751 316.635C76.3541 316.635 77.0581 317.262 77.0581 318.175C77.0581 319.077 76.3541 319.715 75.3751 319.715C74.3961 319.715 73.6921 319.077 73.6921 318.175C73.6921 317.262 74.3961 316.635 75.3751 316.635ZM79.9291 315.414V320.749H80.8421V315.414H79.9291ZM74.4731 321.244V325.226H80.8421V321.244H79.9401V322.498H75.3861V321.244H74.4731ZM75.3861 323.224H79.9401V324.489H75.3861V323.224Z" fill="#F3F5F6"/>
<path d="M21.515 339.93V348.765H27.755V339.93H21.515ZM26.54 340.935V347.76H22.73V340.935H26.54ZM30.59 338.595V352.185H31.835V338.595H30.59ZM44.4188 338.595V352.185H45.6638V338.595H44.4188ZM35.3288 347.88V348.915H36.4538C38.7788 348.915 40.8188 348.825 43.2788 348.42L43.1438 347.4C40.7438 347.79 38.7188 347.88 36.4538 347.88H35.3288ZM35.2988 339.87V340.89H40.3088V343.695H35.3288V348.27H36.5738V344.715H41.5688V339.87H35.2988ZM57.8764 339.885V340.29C57.8764 341.94 55.7014 343.29 53.3014 343.605L53.7664 344.61C56.5414 344.19 58.9864 342.585 58.9864 340.29V339.885H57.8764ZM58.4014 339.885V340.29C58.4014 342.585 60.8464 344.19 63.6064 344.61L64.0864 343.605C61.6864 343.29 59.4964 341.94 59.4964 340.29V339.885H58.4014ZM53.6764 339.285V340.29H63.7114V339.285H53.6764ZM52.5514 345.585V346.605H64.8364V345.585H52.5514ZM58.1614 346.215V349.335H59.4064V346.215H58.1614ZM54.1114 350.85V351.87H63.4714V350.85H54.1114ZM54.1114 348.03V351.24H55.3414V348.03H54.1114ZM76.2052 338.595V352.185H77.4502V338.595H76.2052ZM67.1302 339.75V348.915H73.5202V339.75H72.2752V343.335H68.3602V339.75H67.1302ZM68.3602 344.325H72.2752V347.895H68.3602V344.325ZM89.3441 338.61V352.17H90.5891V338.61H89.3441ZM90.2891 344.175V345.225H92.8091V344.175H90.2891ZM80.0891 340.77V341.79H88.0841V340.77H80.0891ZM84.1391 342.915C82.2341 342.915 80.8391 344.205 80.8391 346.035C80.8391 347.865 82.2341 349.155 84.1391 349.155C86.0591 349.155 87.4391 347.865 87.4391 346.035C87.4391 344.205 86.0591 342.915 84.1391 342.915ZM84.1391 343.95C85.3691 343.95 86.2541 344.805 86.2541 346.035C86.2541 347.25 85.3691 348.12 84.1391 348.12C82.9091 348.12 82.0241 347.25 82.0241 346.035C82.0241 344.805 82.9091 343.95 84.1391 343.95ZM83.4941 338.775V341.235H84.7391V338.775H83.4941ZM95.2529 339.96V340.995H103.983V339.96H95.2529ZM93.9629 349.245V350.28H106.218V349.245H93.9629ZM98.7179 344.4V349.755H99.9629V344.4H98.7179ZM103.518 339.96V341.31C103.518 342.93 103.518 344.835 103.008 347.43L104.253 347.595C104.748 344.85 104.748 342.99 104.748 341.31V339.96H103.518ZM107.876 353.688H108.821L109.971 349.521H108.513L107.876 353.688ZM122.704 340.725V341.745H126.784V340.725H122.704ZM122.704 343.98V345H126.784V343.98H122.704ZM126.334 338.625V348.645H127.579V338.625H126.334ZM118.924 350.85V351.87H127.954V350.85H118.924ZM118.924 347.61V351.3H120.169V347.61H118.924ZM120.124 339.48C118.129 339.48 116.629 340.875 116.629 342.87C116.629 344.865 118.129 346.26 120.124 346.26C122.119 346.26 123.619 344.865 123.619 342.87C123.619 340.875 122.119 339.48 120.124 339.48ZM120.124 340.575C121.444 340.575 122.434 341.535 122.434 342.87C122.434 344.22 121.444 345.18 120.124 345.18C118.804 345.18 117.829 344.22 117.829 342.87C117.829 341.535 118.804 340.575 120.124 340.575ZM131.777 346.74V351.99H140.882V346.74H139.637V348.315H133.007V346.74H131.777ZM133.007 349.275H139.637V350.985H133.007V349.275ZM130.217 344.79V345.795H142.472V344.79H130.217ZM135.722 338.76V339.36C135.722 341.07 133.367 342.525 130.922 342.855L131.372 343.83C134.162 343.41 136.787 341.715 136.787 339.36V338.76H135.722ZM135.917 338.76V339.36C135.917 341.685 138.557 343.41 141.317 343.83L141.782 342.855C139.367 342.525 136.982 341.04 136.982 339.36V338.76H135.917ZM153.211 338.61V352.17H154.456V338.61H153.211ZM154.156 344.175V345.225H156.676V344.175H154.156ZM143.956 340.77V341.79H151.951V340.77H143.956ZM148.006 342.915C146.101 342.915 144.706 344.205 144.706 346.035C144.706 347.865 146.101 349.155 148.006 349.155C149.926 349.155 151.306 347.865 151.306 346.035C151.306 344.205 149.926 342.915 148.006 342.915ZM148.006 343.95C149.236 343.95 150.121 344.805 150.121 346.035C150.121 347.25 149.236 348.12 148.006 348.12C146.776 348.12 145.891 347.25 145.891 346.035C145.891 344.805 146.776 343.95 148.006 343.95ZM147.361 338.775V341.235H148.606V338.775H147.361ZM159.12 339.96V340.995H167.85V339.96H159.12ZM157.83 349.245V350.28H170.085V349.245H157.83ZM162.585 344.4V349.755H163.83V344.4H162.585ZM167.385 339.96V341.31C167.385 342.93 167.385 344.835 166.875 347.43L168.12 347.595C168.615 344.85 168.615 342.99 168.615 341.31V339.96H167.385ZM171.743 353.688H172.688L173.838 349.521H172.38L171.743 353.688ZM190.591 338.61V352.17H191.791V338.61H190.591ZM188.401 344.055V345.075H190.996V344.055H188.401ZM184.891 340.35V340.59C184.891 343.725 183.691 346.47 180.286 348.375L181.021 349.26C184.891 347.085 186.091 343.845 186.091 340.35H184.891ZM180.811 340.35V341.385H185.311V340.35H180.811ZM187.576 338.97V351.51H188.761V338.97H187.576ZM201.045 341.805V342.84H204.465V341.805H201.045ZM197.49 339.435V341.1C197.49 343.17 196.125 345.09 194.115 345.84L194.76 346.83C197.025 345.915 198.495 343.725 198.495 341.1V339.435H197.49ZM197.73 339.435V341.145C197.73 343.56 199.185 345.66 201.345 346.5L202.02 345.54C200.055 344.82 198.735 343.035 198.735 341.145V339.435H197.73ZM204 338.625V348.765H205.245V338.625H204ZM196.53 350.85V351.87H205.575V350.85H196.53ZM196.53 347.64V351.33H197.775V347.64H196.53ZM217.078 338.61V352.17H218.323V338.61H217.078ZM218.023 344.175V345.225H220.543V344.175H218.023ZM207.823 340.77V341.79H215.818V340.77H207.823ZM211.873 342.915C209.968 342.915 208.573 344.205 208.573 346.035C208.573 347.865 209.968 349.155 211.873 349.155C213.793 349.155 215.173 347.865 215.173 346.035C215.173 344.205 213.793 342.915 211.873 342.915ZM211.873 343.95C213.103 343.95 213.988 344.805 213.988 346.035C213.988 347.25 213.103 348.12 211.873 348.12C210.643 348.12 209.758 347.25 209.758 346.035C209.758 344.805 210.643 343.95 211.873 343.95ZM211.228 338.775V341.235H212.473V338.775H211.228ZM231.567 338.61V352.17H232.812V338.61H231.567ZM227.592 340.065V340.275C227.592 343.875 225.777 346.755 221.862 348.645L222.522 349.65C227.052 347.43 228.822 343.995 228.822 340.065H227.592ZM222.477 340.065V341.085H228.132V340.065H222.477Z" fill="#445060"/>
</svg>
